<?xml version="1.0" standalone="no"?>
<!DOCTYPE svg PUBLIC "-//W3C//DTD SVG 20010904//EN"
 "http://www.w3.org/TR/2001/REC-SVG-20010904/DTD/svg10.dtd">
<svg version="1.0" xmlns="http://www.w3.org/2000/svg"
 width="512.000000pt" height="512.000000pt" viewBox="0 0 512.000000 512.000000"
 preserveAspectRatio="xMidYMid meet">

<g transform="translate(0.000000,512.000000) scale(0.100000,-0.100000)"
fill="#000000" stroke="none">
<path d="M3657 4501 c-197 -151 -455 -266 -704 -313 -63 -12 -124 -29 -136
-38 -26 -21 -34 -82 -43 -340 -14 -421 42 -779 153 -978 128 -229 395 -478
697 -649 61 -34 122 -63 136 -63 54 0 290 144 456 278 315 253 455 494 509
874 22 152 30 487 17 683 -14 207 -11 202 -163 231 -264 51 -506 157 -714 314
-49 37 -90 60 -105 60 -16 0 -55 -23 -103 -59z m190 -185 c170 -117 390 -214
602 -265 68 -17 127 -33 130 -37 12 -12 6 -598 -7 -694 -29 -203 -66 -322
-134 -436 -123 -204 -348 -408 -621 -563 l-58 -33 -105 63 c-360 217 -597 486
-664 752 -45 179 -55 287 -55 604 0 166 3 304 6 307 3 4 60 19 125 35 215 53
411 138 589 255 55 36 103 66 107 66 3 0 42 -24 85 -54z"/>
<path d="M4200 3673 c-8 -3 -131 -120 -272 -261 l-257 -256 -169 167 c-145
143 -174 167 -200 167 -17 0 -38 -3 -47 -6 -23 -9 -46 -60 -39 -87 3 -13 99
-117 213 -231 174 -173 212 -206 236 -206 25 0 74 45 332 302 270 269 303 306
303 334 0 53 -54 94 -100 77z"/>
<path d="M666 3664 c-34 -11 -64 -31 -102 -68 -90 -91 -84 9 -84 -1356 0
-1365 -6 -1265 84 -1356 92 -91 -69 -84 1836 -84 1905 0 1744 -7 1836 84 86
86 84 73 84 693 l0 534 -25 24 c-29 30 -74 32 -106 6 l-24 -19 -5 -546 -5
-546 -33 -32 -32 -33 -1690 0 -1690 0 -32 33 -33 32 0 1210 0 1210 33 32 32
33 926 5 926 5 19 24 c26 32 24 77 -6 106 l-24 25 -918 -1 c-786 0 -925 -3
-967 -15z"/>
<path d="M1633 3105 c-187 -51 -334 -201 -378 -387 -38 -160 0 -318 109 -451
l44 -55 -57 -21 c-80 -29 -192 -111 -247 -179 -121 -151 -176 -382 -128 -542
22 -74 100 -152 174 -174 80 -24 1140 -24 1220 0 74 22 152 100 174 174 34
113 13 289 -48 415 -67 138 -190 254 -325 306 l-58 23 44 53 c170 210 162 493
-22 691 -122 132 -330 193 -502 147z m273 -179 c77 -35 145 -103 181 -180 24
-52 28 -74 28 -146 0 -72 -4 -94 -28 -146 -36 -77 -104 -145 -182 -181 -51
-24 -73 -28 -145 -28 -72 0 -94 4 -145 28 -78 36 -146 104 -182 181 -24 52
-28 74 -28 146 0 72 4 94 28 145 86 183 293 263 473 181z m139 -861 c83 -22
151 -61 216 -125 96 -95 145 -225 137 -362 -3 -61 -7 -72 -36 -101 l-32 -32
-570 0 -570 0 -32 32 c-29 29 -33 40 -36 101 -13 227 132 428 351 487 77 20
492 21 572 0z"/>
<path d="M2905 1895 c-16 -15 -25 -36 -25 -55 0 -19 9 -40 25 -55 l24 -25 271
0 271 0 24 25 c16 15 25 36 25 55 0 19 -9 40 -25 55 l-24 25 -271 0 -271 0
-24 -25z"/>
<path d="M2905 1415 c-16 -15 -25 -36 -25 -55 0 -19 9 -40 25 -55 l24 -25 431
0 431 0 24 25 c16 15 25 36 25 55 0 19 -9 40 -25 55 l-24 25 -431 0 -431 0
-24 -25z"/>
</g>
</svg>
